<mxfile host="app.diagrams.net" modified="2021-11-06T14:09:20.836Z" agent="5.0 (Windows NT 10.0; Win64; x64) AppleWebKit/537.36 (KHTML, like Gecko) Chrome/95.0.4638.69 Safari/537.36" etag="OaHcBRov7sNRhvE9q-pA" version="15.7.0" type="github">
  <diagram id="C5RBs43oDa-KdzZeNtuy" name="Page-1">
    <mxGraphModel dx="2062" dy="1154" grid="1" gridSize="10" guides="1" tooltips="1" connect="1" arrows="1" fold="1" page="1" pageScale="1" pageWidth="827" pageHeight="1169" math="0" shadow="0">
      <root>
        <object label="" id="WIyWlLk6GJQsqaUBKTNV-0">
          <mxCell />
        </object>
        <mxCell id="WIyWlLk6GJQsqaUBKTNV-1" parent="WIyWlLk6GJQsqaUBKTNV-0" />
        <mxCell id="KFVRMoQbNa67OWhDFZMH-0" value="Начало" style="ellipse;whiteSpace=wrap;html=1;aspect=fixed;" vertex="1" parent="WIyWlLk6GJQsqaUBKTNV-1">
          <mxGeometry x="360" y="170" width="80" height="80" as="geometry" />
        </mxCell>
        <mxCell id="KFVRMoQbNa67OWhDFZMH-19" value="" style="edgeStyle=orthogonalEdgeStyle;rounded=0;orthogonalLoop=1;jettySize=auto;html=1;" edge="1" parent="WIyWlLk6GJQsqaUBKTNV-1" source="KFVRMoQbNa67OWhDFZMH-1" target="KFVRMoQbNa67OWhDFZMH-2">
          <mxGeometry relative="1" as="geometry" />
        </mxCell>
        <mxCell id="KFVRMoQbNa67OWhDFZMH-1" value="Объявление А, В и С" style="rounded=1;whiteSpace=wrap;html=1;" vertex="1" parent="WIyWlLk6GJQsqaUBKTNV-1">
          <mxGeometry x="315" y="270" width="170" height="60" as="geometry" />
        </mxCell>
        <mxCell id="KFVRMoQbNa67OWhDFZMH-2" value="А &amp;gt; В" style="rhombus;whiteSpace=wrap;html=1;" vertex="1" parent="WIyWlLk6GJQsqaUBKTNV-1">
          <mxGeometry x="350" y="350" width="100" height="100" as="geometry" />
        </mxCell>
        <mxCell id="KFVRMoQbNa67OWhDFZMH-3" value="А &amp;gt;&amp;nbsp; С" style="rhombus;whiteSpace=wrap;html=1;" vertex="1" parent="WIyWlLk6GJQsqaUBKTNV-1">
          <mxGeometry x="170" y="480" width="80" height="80" as="geometry" />
        </mxCell>
        <mxCell id="KFVRMoQbNa67OWhDFZMH-5" value="" style="endArrow=none;html=1;rounded=0;" edge="1" parent="WIyWlLk6GJQsqaUBKTNV-1">
          <mxGeometry width="50" height="50" relative="1" as="geometry">
            <mxPoint x="450" y="400" as="sourcePoint" />
            <mxPoint x="600" y="400" as="targetPoint" />
          </mxGeometry>
        </mxCell>
        <mxCell id="KFVRMoQbNa67OWhDFZMH-6" value="" style="endArrow=none;html=1;rounded=0;" edge="1" parent="WIyWlLk6GJQsqaUBKTNV-1">
          <mxGeometry width="50" height="50" relative="1" as="geometry">
            <mxPoint x="210" y="400" as="sourcePoint" />
            <mxPoint x="350" y="399.5" as="targetPoint" />
          </mxGeometry>
        </mxCell>
        <mxCell id="KFVRMoQbNa67OWhDFZMH-13" value="" style="endArrow=classic;html=1;rounded=0;" edge="1" parent="WIyWlLk6GJQsqaUBKTNV-1">
          <mxGeometry width="50" height="50" relative="1" as="geometry">
            <mxPoint x="209.5" y="400" as="sourcePoint" />
            <mxPoint x="209.5" y="480" as="targetPoint" />
          </mxGeometry>
        </mxCell>
        <mxCell id="KFVRMoQbNa67OWhDFZMH-14" value="" style="endArrow=classic;html=1;rounded=0;" edge="1" parent="WIyWlLk6GJQsqaUBKTNV-1">
          <mxGeometry width="50" height="50" relative="1" as="geometry">
            <mxPoint x="600" y="400" as="sourcePoint" />
            <mxPoint x="600" y="480" as="targetPoint" />
          </mxGeometry>
        </mxCell>
        <mxCell id="KFVRMoQbNa67OWhDFZMH-18" value="" style="endArrow=classic;html=1;rounded=0;" edge="1" parent="WIyWlLk6GJQsqaUBKTNV-1">
          <mxGeometry width="50" height="50" relative="1" as="geometry">
            <mxPoint x="399.5" y="330" as="sourcePoint" />
            <mxPoint x="399.5" y="350" as="targetPoint" />
            <Array as="points">
              <mxPoint x="399.5" y="340" />
            </Array>
          </mxGeometry>
        </mxCell>
        <mxCell id="KFVRMoQbNa67OWhDFZMH-20" value="" style="endArrow=classic;html=1;rounded=0;" edge="1" parent="WIyWlLk6GJQsqaUBKTNV-1">
          <mxGeometry width="50" height="50" relative="1" as="geometry">
            <mxPoint x="399.5" y="250" as="sourcePoint" />
            <mxPoint x="399.5" y="270" as="targetPoint" />
            <Array as="points">
              <mxPoint x="399.5" y="260" />
            </Array>
          </mxGeometry>
        </mxCell>
        <mxCell id="KFVRMoQbNa67OWhDFZMH-21" value="" style="endArrow=none;html=1;rounded=0;" edge="1" parent="WIyWlLk6GJQsqaUBKTNV-1">
          <mxGeometry width="50" height="50" relative="1" as="geometry">
            <mxPoint x="90" y="519.5" as="sourcePoint" />
            <mxPoint x="170" y="519.5" as="targetPoint" />
          </mxGeometry>
        </mxCell>
        <mxCell id="KFVRMoQbNa67OWhDFZMH-22" value="" style="endArrow=none;html=1;rounded=0;" edge="1" parent="WIyWlLk6GJQsqaUBKTNV-1">
          <mxGeometry width="50" height="50" relative="1" as="geometry">
            <mxPoint x="250" y="519.5" as="sourcePoint" />
            <mxPoint x="330" y="519.5" as="targetPoint" />
          </mxGeometry>
        </mxCell>
        <mxCell id="KFVRMoQbNa67OWhDFZMH-23" value="Напечатать А" style="rounded=1;whiteSpace=wrap;html=1;" vertex="1" parent="WIyWlLk6GJQsqaUBKTNV-1">
          <mxGeometry x="30" y="560" width="120" height="60" as="geometry" />
        </mxCell>
        <mxCell id="KFVRMoQbNa67OWhDFZMH-24" value="Напечатать&amp;nbsp; С" style="rounded=1;whiteSpace=wrap;html=1;" vertex="1" parent="WIyWlLk6GJQsqaUBKTNV-1">
          <mxGeometry x="270" y="560" width="120" height="60" as="geometry" />
        </mxCell>
        <mxCell id="KFVRMoQbNa67OWhDFZMH-25" value="" style="endArrow=classic;html=1;rounded=0;" edge="1" parent="WIyWlLk6GJQsqaUBKTNV-1">
          <mxGeometry width="50" height="50" relative="1" as="geometry">
            <mxPoint x="89.5" y="520" as="sourcePoint" />
            <mxPoint x="89.5" y="560" as="targetPoint" />
          </mxGeometry>
        </mxCell>
        <mxCell id="KFVRMoQbNa67OWhDFZMH-26" value="" style="endArrow=classic;html=1;rounded=0;" edge="1" parent="WIyWlLk6GJQsqaUBKTNV-1">
          <mxGeometry width="50" height="50" relative="1" as="geometry">
            <mxPoint x="329" y="520" as="sourcePoint" />
            <mxPoint x="329" y="560" as="targetPoint" />
          </mxGeometry>
        </mxCell>
        <mxCell id="KFVRMoQbNa67OWhDFZMH-27" value="True" style="text;html=1;align=center;verticalAlign=middle;resizable=0;points=[];autosize=1;strokeColor=none;fillColor=none;" vertex="1" parent="WIyWlLk6GJQsqaUBKTNV-1">
          <mxGeometry x="290" y="370" width="40" height="20" as="geometry" />
        </mxCell>
        <mxCell id="KFVRMoQbNa67OWhDFZMH-28" value="False" style="text;html=1;align=center;verticalAlign=middle;resizable=0;points=[];autosize=1;strokeColor=none;fillColor=none;" vertex="1" parent="WIyWlLk6GJQsqaUBKTNV-1">
          <mxGeometry x="460" y="370" width="40" height="20" as="geometry" />
        </mxCell>
        <mxCell id="KFVRMoQbNa67OWhDFZMH-29" value="True" style="text;html=1;align=center;verticalAlign=middle;resizable=0;points=[];autosize=1;strokeColor=none;fillColor=none;" vertex="1" parent="WIyWlLk6GJQsqaUBKTNV-1">
          <mxGeometry x="110" y="490" width="40" height="20" as="geometry" />
        </mxCell>
        <mxCell id="KFVRMoQbNa67OWhDFZMH-30" value="False" style="text;html=1;align=center;verticalAlign=middle;resizable=0;points=[];autosize=1;strokeColor=none;fillColor=none;" vertex="1" parent="WIyWlLk6GJQsqaUBKTNV-1">
          <mxGeometry x="270" y="490" width="40" height="20" as="geometry" />
        </mxCell>
        <mxCell id="KFVRMoQbNa67OWhDFZMH-31" value="" style="endArrow=none;html=1;rounded=0;" edge="1" parent="WIyWlLk6GJQsqaUBKTNV-1">
          <mxGeometry width="50" height="50" relative="1" as="geometry">
            <mxPoint x="90" y="680" as="sourcePoint" />
            <mxPoint x="89.5" y="620" as="targetPoint" />
          </mxGeometry>
        </mxCell>
        <mxCell id="KFVRMoQbNa67OWhDFZMH-32" value="" style="endArrow=none;html=1;rounded=0;" edge="1" parent="WIyWlLk6GJQsqaUBKTNV-1">
          <mxGeometry width="50" height="50" relative="1" as="geometry">
            <mxPoint x="330.5" y="680" as="sourcePoint" />
            <mxPoint x="330" y="620" as="targetPoint" />
          </mxGeometry>
        </mxCell>
        <mxCell id="KFVRMoQbNa67OWhDFZMH-34" value="" style="endArrow=none;html=1;rounded=0;" edge="1" parent="WIyWlLk6GJQsqaUBKTNV-1">
          <mxGeometry width="50" height="50" relative="1" as="geometry">
            <mxPoint x="90" y="680" as="sourcePoint" />
            <mxPoint x="720" y="680" as="targetPoint" />
          </mxGeometry>
        </mxCell>
        <mxCell id="KFVRMoQbNa67OWhDFZMH-35" value="" style="endArrow=classic;html=1;rounded=0;" edge="1" parent="WIyWlLk6GJQsqaUBKTNV-1">
          <mxGeometry width="50" height="50" relative="1" as="geometry">
            <mxPoint x="399.5" y="680" as="sourcePoint" />
            <mxPoint x="400" y="760" as="targetPoint" />
            <Array as="points">
              <mxPoint x="400" y="720" />
            </Array>
          </mxGeometry>
        </mxCell>
        <mxCell id="KFVRMoQbNa67OWhDFZMH-36" value="Конец" style="ellipse;whiteSpace=wrap;html=1;aspect=fixed;" vertex="1" parent="WIyWlLk6GJQsqaUBKTNV-1">
          <mxGeometry x="360" y="760" width="80" height="80" as="geometry" />
        </mxCell>
        <mxCell id="KFVRMoQbNa67OWhDFZMH-37" value="B &amp;gt; C" style="rhombus;whiteSpace=wrap;html=1;" vertex="1" parent="WIyWlLk6GJQsqaUBKTNV-1">
          <mxGeometry x="560" y="480" width="80" height="80" as="geometry" />
        </mxCell>
        <mxCell id="KFVRMoQbNa67OWhDFZMH-38" value="" style="endArrow=none;html=1;rounded=0;" edge="1" parent="WIyWlLk6GJQsqaUBKTNV-1">
          <mxGeometry width="50" height="50" relative="1" as="geometry">
            <mxPoint x="480" y="519.5" as="sourcePoint" />
            <mxPoint x="560" y="519.5" as="targetPoint" />
          </mxGeometry>
        </mxCell>
        <mxCell id="KFVRMoQbNa67OWhDFZMH-39" value="" style="endArrow=none;html=1;rounded=0;" edge="1" parent="WIyWlLk6GJQsqaUBKTNV-1">
          <mxGeometry width="50" height="50" relative="1" as="geometry">
            <mxPoint x="640" y="519.5" as="sourcePoint" />
            <mxPoint x="720" y="519.5" as="targetPoint" />
          </mxGeometry>
        </mxCell>
        <mxCell id="KFVRMoQbNa67OWhDFZMH-40" value="Напечатать&amp;nbsp; B" style="rounded=1;whiteSpace=wrap;html=1;" vertex="1" parent="WIyWlLk6GJQsqaUBKTNV-1">
          <mxGeometry x="420" y="560" width="120" height="60" as="geometry" />
        </mxCell>
        <mxCell id="KFVRMoQbNa67OWhDFZMH-41" value="Напечатать&amp;nbsp; С" style="rounded=1;whiteSpace=wrap;html=1;" vertex="1" parent="WIyWlLk6GJQsqaUBKTNV-1">
          <mxGeometry x="660" y="560" width="120" height="60" as="geometry" />
        </mxCell>
        <mxCell id="KFVRMoQbNa67OWhDFZMH-43" value="" style="endArrow=classic;html=1;rounded=0;" edge="1" parent="WIyWlLk6GJQsqaUBKTNV-1">
          <mxGeometry width="50" height="50" relative="1" as="geometry">
            <mxPoint x="480" y="520" as="sourcePoint" />
            <mxPoint x="480" y="560" as="targetPoint" />
          </mxGeometry>
        </mxCell>
        <mxCell id="KFVRMoQbNa67OWhDFZMH-44" value="" style="endArrow=classic;html=1;rounded=0;" edge="1" parent="WIyWlLk6GJQsqaUBKTNV-1">
          <mxGeometry width="50" height="50" relative="1" as="geometry">
            <mxPoint x="719.5" y="520" as="sourcePoint" />
            <mxPoint x="719.5" y="560" as="targetPoint" />
          </mxGeometry>
        </mxCell>
        <mxCell id="KFVRMoQbNa67OWhDFZMH-45" value="" style="endArrow=none;html=1;rounded=0;" edge="1" parent="WIyWlLk6GJQsqaUBKTNV-1">
          <mxGeometry width="50" height="50" relative="1" as="geometry">
            <mxPoint x="480" y="680" as="sourcePoint" />
            <mxPoint x="479.5" y="620" as="targetPoint" />
          </mxGeometry>
        </mxCell>
        <mxCell id="KFVRMoQbNa67OWhDFZMH-46" value="" style="endArrow=none;html=1;rounded=0;" edge="1" parent="WIyWlLk6GJQsqaUBKTNV-1">
          <mxGeometry width="50" height="50" relative="1" as="geometry">
            <mxPoint x="720" y="680" as="sourcePoint" />
            <mxPoint x="719.5" y="620" as="targetPoint" />
          </mxGeometry>
        </mxCell>
        <mxCell id="KFVRMoQbNa67OWhDFZMH-47" value="True" style="text;html=1;align=center;verticalAlign=middle;resizable=0;points=[];autosize=1;strokeColor=none;fillColor=none;" vertex="1" parent="WIyWlLk6GJQsqaUBKTNV-1">
          <mxGeometry x="500" y="490" width="40" height="20" as="geometry" />
        </mxCell>
        <mxCell id="KFVRMoQbNa67OWhDFZMH-48" value="False" style="text;html=1;align=center;verticalAlign=middle;resizable=0;points=[];autosize=1;strokeColor=none;fillColor=none;" vertex="1" parent="WIyWlLk6GJQsqaUBKTNV-1">
          <mxGeometry x="660" y="490" width="40" height="20" as="geometry" />
        </mxCell>
      </root>
    </mxGraphModel>
  </diagram>
</mxfile>
